<svg xmlns="http://www.w3.org/2000/svg" viewBox="0 0 600 700">
  <ellipse cx="300" cy="620" rx="140" ry="16" fill="#000" opacity="0.06"/>
  <path d="M380 600 Q395 590 410 600 L410 620 L380 620 Z" fill="#555"/><rect x="388" y="460" width="14" height="140" rx="4" fill="#444"/><path d="M374 440 C380 415 414 415 420 440 L422 465 L372 465 Z" fill="#555"/>
  <path d="M395 430 C385 380 370 370 365 340 C362 340 358 342 355 344 L348 430 C350 440 370 450 395 445 Z" fill="#4a7c59"/><path d="M355 344 C360 370 365 400 362 430 L348 430 C350 380 352 360 355 344 Z" fill="#3d6649" opacity="0.4"/><rect x="358" y="290" width="20" height="28" rx="8" fill="#f5cba7"/><ellipse cx="370" cy="272" rx="32" ry="36" fill="#f5cba7"/><path d="M342 258 C360 224 390 222 402 254 C404 268 396 276 386 272 C384 254 368 246 352 256 C344 260 340 262 342 258 Z" fill="#3d2314"/><circle cx="355" cy="274" r="2.5" fill="#2d3436"/><circle cx="378" cy="274" r="2.5" fill="#2d3436"/><path d="M360 288 Q368 294 376 288" stroke="#8d6e63" stroke-width="2" fill="none" stroke-linecap="round"/><path d="M390 380 C400 400 415 420 410 445 C408 455 402 460 398 458" fill="#f5cba7" stroke="#e8b796" stroke-width="1"/><ellipse cx="398" cy="458" rx="10" ry="8" fill="#f5cba7"/><path d="M355 370 C340 380 320 385 310 382" fill="#f5cba7" stroke="#e8b796" stroke-width="1"/><ellipse cx="310" cy="382" rx="9" ry="7" fill="#f5cba7"/><path d="M375 445 C370 480 365 530 370 580 L384 580 C386 530 388 480 390 445 Z" fill="#3d3d3d"/><path d="M390 445 C395 480 400 530 395 580 L410 580 C412 530 408 480 400 445 Z" fill="#3d3d3d"/><ellipse cx="377" cy="585" rx="14" ry="8" fill="#2d3436"/><ellipse cx="402" cy="585" rx="14" ry="8" fill="#2d3436"/>
  <rect x="248" y="400" width="58" height="100" rx="10" fill="#1c1c1e"/><rect x="252" y="408" width="50" height="84" rx="6" fill="#33663f"/><rect x="260" y="418" width="34" height="6" rx="3" fill="#fff" opacity="0.8"/><rect x="260" y="430" width="26" height="4" rx="2" fill="#fff" opacity="0.5"/><rect x="260" y="440" width="30" height="4" rx="2" fill="#fff" opacity="0.5"/><rect x="260" y="452" width="34" height="20" rx="4" fill="#fff" opacity="0.2"/><rect x="260" y="478" width="34" height="14" rx="4" fill="#fff" opacity="0.15"/>
</svg>
