<svg xmlns="http://www.w3.org/2000/svg" viewBox="0 0 600 700">
  <ellipse cx="300" cy="640" rx="60" ry="10" fill="#000" opacity="0.08"/>
  <path d="M285 480 C283 520 280 570 278 620" stroke="#3d3d3d" stroke-width="28" fill="none" stroke-linecap="round"/>
  <path d="M315 480 C317 520 320 570 322 620" stroke="#3d3d3d" stroke-width="28" fill="none" stroke-linecap="round"/>
  <path d="M265 618 C262 625 265 635 280 636 C292 636 295 630 293 624" fill="#2d3436"/>
  <path d="M308 618 C305 625 308 635 323 636 C335 636 338 630 336 624" fill="#2d3436"/>
  <path d="M270 340 C265 380 268 430 280 480 L320 480 C332 430 335 380 330 340 Z" fill="#4a7c59"/>
  <path d="M295 340 C298 380 300 430 302 480" stroke="#3d6649" stroke-width="2" fill="none" opacity="0.3"/>
  <path d="M280 340 C290 348 310 348 320 340" fill="none" stroke="#3d6649" stroke-width="2"/>
  <rect x="290" y="300" width="20" height="30" rx="8" fill="#f5cba7"/>
  <ellipse cx="302" cy="275" rx="30" ry="34" fill="#f5cba7"/>
  <path d="M274 265 C278 240 300 230 325 238 C335 245 333 265 328 272 C325 255 310 247 295 250 C282 253 276 260 274 265 Z" fill="#3d2314"/>
  <ellipse cx="292" cy="278" rx="3" ry="2" fill="#2d3436"/>
  <ellipse cx="312" cy="278" rx="3" ry="2" fill="#2d3436"/>
  <path d="M275 360 C260 380 255 410 260 430" stroke="#f5cba7" stroke-width="14" fill="none" stroke-linecap="round"/>
  <path d="M325 360 C340 380 345 410 340 430" stroke="#f5cba7" stroke-width="14" fill="none" stroke-linecap="round"/>
  <rect x="268" y="420" width="64" height="110" rx="10" fill="#1c1c1e"/>
  <rect x="272" y="428" width="56" height="94" rx="6" fill="#33663f"/>
  <rect x="280" y="438" width="40" height="6" rx="3" fill="#fff" opacity="0.8"/>
  <rect x="280" y="450" width="32" height="4" rx="2" fill="#fff" opacity="0.5"/>
  <rect x="280" y="460" width="36" height="4" rx="2" fill="#fff" opacity="0.5"/>
  <rect x="280" y="472" width="40" height="20" rx="4" fill="#fff" opacity="0.2"/>
  <rect x="280" y="498" width="40" height="14" rx="4" fill="#fff" opacity="0.15"/>
</svg>
