<svg xmlns="http://www.w3.org/2000/svg" viewBox="0 0 600 700">
  <ellipse cx="300" cy="400" rx="100" ry="200" fill="#33663f" opacity="0.06"/>
  <path d="M300 130 C295 180 305 230 300 280 C295 330 305 380 300 430 C295 480 305 530 300 570" stroke="#8d7b68" stroke-width="10" fill="none" stroke-linecap="round"/>
  <ellipse cx="301.0" cy="155" rx="18.0" ry="8" fill="#8d7b68" opacity="0.5"/>
<ellipse cx="301.0" cy="155" rx="10" ry="5" fill="#c4b4a0" opacity="0.4"/>
<ellipse cx="302.1" cy="185" rx="18.3" ry="8" fill="#8d7b68" opacity="0.5"/>
<ellipse cx="302.1" cy="185" rx="10" ry="5" fill="#c4b4a0" opacity="0.4"/>
<ellipse cx="302.8" cy="215" rx="18.6" ry="8" fill="#8d7b68" opacity="0.5"/>
<ellipse cx="302.8" cy="215" rx="10" ry="5" fill="#c4b4a0" opacity="0.4"/>
<ellipse cx="303.0" cy="245" rx="18.9" ry="8" fill="#8d7b68" opacity="0.5"/>
<ellipse cx="303.0" cy="245" rx="10" ry="5" fill="#c4b4a0" opacity="0.4"/>
<ellipse cx="302.6" cy="275" rx="19.2" ry="8" fill="#8d7b68" opacity="0.5"/>
<ellipse cx="302.6" cy="275" rx="10" ry="5" fill="#c4b4a0" opacity="0.4"/>
<ellipse cx="301.8" cy="305" rx="19.5" ry="8" fill="#8d7b68" opacity="0.5"/>
<ellipse cx="301.8" cy="305" rx="10" ry="5" fill="#c4b4a0" opacity="0.4"/>
<ellipse cx="300.6" cy="335" rx="19.8" ry="8" fill="#8d7b68" opacity="0.5"/>
<ellipse cx="300.6" cy="335" rx="10" ry="5" fill="#c4b4a0" opacity="0.4"/>
<ellipse cx="299.4" cy="365" rx="20.1" ry="8" fill="#8d7b68" opacity="0.5"/>
<ellipse cx="299.4" cy="365" rx="10" ry="5" fill="#c4b4a0" opacity="0.4"/>
<ellipse cx="298.2" cy="395" rx="20.4" ry="8" fill="#8d7b68" opacity="0.5"/>
<ellipse cx="298.2" cy="395" rx="10" ry="5" fill="#c4b4a0" opacity="0.4"/>
<ellipse cx="297.4" cy="425" rx="20.7" ry="8" fill="#e07a5f" opacity="0.55"/>
<ellipse cx="297.4" cy="425" rx="10" ry="5" fill="#c4b4a0" opacity="0.4"/>
<ellipse cx="297.0" cy="455" rx="21.0" ry="8" fill="#e07a5f" opacity="0.55"/>
<ellipse cx="297.0" cy="455" rx="10" ry="5" fill="#c4b4a0" opacity="0.4"/>
<ellipse cx="297.2" cy="485" rx="21.3" ry="8" fill="#e07a5f" opacity="0.55"/>
<ellipse cx="297.2" cy="485" rx="10" ry="5" fill="#c4b4a0" opacity="0.4"/>
<ellipse cx="297.9" cy="515" rx="21.6" ry="8" fill="#e07a5f" opacity="0.55"/>
<ellipse cx="297.9" cy="515" rx="10" ry="5" fill="#c4b4a0" opacity="0.4"/>
<ellipse cx="299.0" cy="545" rx="21.9" ry="8" fill="#e07a5f" opacity="0.55"/>
<ellipse cx="299.0" cy="545" rx="10" ry="5" fill="#c4b4a0" opacity="0.4"/>
  <ellipse cx="300" cy="460" rx="55" ry="70" fill="#e07a5f" opacity="0.14"/>
  <ellipse cx="300" cy="460" rx="35" ry="45" fill="#e07a5f" opacity="0.16"/>
</svg>
