<svg xmlns="http://www.w3.org/2000/svg" viewBox="0 0 600 700">
  <ellipse cx="300" cy="640" rx="60" ry="10" fill="#000" opacity="0.08"/><path d="M285 480 C283 520 280 570 278 620" stroke="#3d3d3d" stroke-width="28" fill="none" stroke-linecap="round"/><path d="M315 480 C317 520 320 570 322 620" stroke="#3d3d3d" stroke-width="28" fill="none" stroke-linecap="round"/><path d="M265 618 C262 625 265 635 280 636 C292 636 295 630 293 624" fill="#2d3436"/><path d="M308 618 C305 625 308 635 323 636 C335 636 338 630 336 624" fill="#2d3436"/><path d="M270 340 C265 380 268 430 280 480 L320 480 C332 430 335 380 330 340 Z" fill="#4a7c59"/><path d="M295 340 C298 380 300 430 302 480" stroke="#3d6649" stroke-width="2" fill="none" opacity="0.3"/><path d="M280 340 C290 348 310 348 320 340" fill="none" stroke="#3d6649" stroke-width="2"/><rect x="290" y="293" width="20" height="28" rx="8" fill="#f5cba7"/><ellipse cx="302" cy="275" rx="32" ry="36" fill="#f5cba7"/><path d="M270 263 C272 238 297 223 327 233 C337 238 334 263 332 271 C330 258 312 248 292 251 C277 253 272 261 270 263 Z" fill="#3d2314"/><circle cx="287" cy="277" r="2.5" fill="#2d3436"/><circle cx="310" cy="277" r="2.5" fill="#2d3436"/><path d="M292 291 Q300 297 308 291" stroke="#8d6e63" stroke-width="2" fill="none" stroke-linecap="round"/><path d="M275 360 C260 380 255 410 260 430" stroke="#f5cba7" stroke-width="14" fill="none" stroke-linecap="round"/><path d="M325 360 C340 380 345 410 340 430" stroke="#f5cba7" stroke-width="14" fill="none" stroke-linecap="round"/>
</svg>
